<svg width="184" height="54" viewBox="0 0 184 54" fill="none" xmlns="http://www.w3.org/2000/svg">
<rect x="90.3272" y="13.4421" width="93.6728" height="40.1455" rx="1" fill="#83898F"/>
<path d="M0 8.04806H4.36453L9.00185 21.479C10.434 17.0256 13.9119 7.34116 15.2077 4.93773C17.1853 1.19119 20.6633 -0.505345 24.9597 0.130859L24.4823 4.37222C21.8227 3.94808 19.9814 4.79635 18.8902 7.05841C16.708 11.0877 11.2523 28.6893 11.1841 28.8307L10.9113 29.0428L7.36514 29.1135L0 8.04806Z" fill="#83898F"/>
<path d="M27.4147 11.4408H24.6869V7.62361H34.4389V11.4408H31.5065V24.7304H27.4147V11.4408ZM24.6869 25.3666H34.4389V29.1839H24.6869V25.3666Z" fill="#83898F"/>
<path d="M42.7601 8.04776H46.9882L53.535 20.4891V8.04776H57.6268V29.0425L57.354 29.1839H53.3986L46.8518 16.6719V29.1839H42.7601V8.04776Z" fill="#83898F"/>
<path d="M165.828 24.9517V21.6999H171.965V17.4586H159.281V21.6999H161.668V29.193H175.034V24.9517H165.828Z" fill="#121B25"/>
<path d="M165.827 11.946H174.42V7.70459H161.667V16.6821H165.827V11.946Z" fill="#121B25"/>
<path d="M103.224 12.2985H97.0182V7.9864H113.522V12.2985H107.316V29.1932H103.156V12.2985H103.224Z" fill="#121B25"/>
<path d="M78.5631 16.53H62.7417V20.6299H78.5631V16.53Z" fill="#83898F"/>
<path d="M146.118 19.2978V23.1151H150.756C149.665 24.2461 148.301 24.953 146.664 24.953C143.322 24.953 140.595 22.1254 140.595 18.6616C140.595 15.1979 143.322 12.3703 146.664 12.3703C148.983 12.3703 151.097 13.7134 152.12 15.9048L155.734 13.8548C153.961 10.3203 150.483 8.12893 146.664 8.12893C141.004 8.12893 136.503 12.8651 136.503 18.6616C136.503 24.4582 141.072 29.265 146.664 29.265C150.551 29.265 154.165 27.215 155.802 23.1858V19.3685H146.118V19.2978Z" fill="#121B25"/>
<path d="M126.683 8.26974L122.864 8.34043C122.864 8.34043 118.022 23.9628 115.635 29.3352H118.022H120.136H129.616H130.911H132.343H133.98L126.683 8.26974ZM121.568 25.5179C122.864 22.0542 124.16 18.2369 124.91 15.9042L128.252 25.5179H121.568Z" fill="#121B25"/>
</svg>
