<svg width="147" height="43" viewBox="0 0 147 43" fill="none" xmlns="http://www.w3.org/2000/svg">
<path d="M1.50798 0L1.50798 42.9688" stroke="#83898F" stroke-width="3"/>
<path d="M20.9337 15.6835H26.1413V17.6282H18.4811V5.87895H20.9337V15.6835Z" fill="#83898F"/>
<path d="M41.1365 15.2074H36.8362L36.0187 17.6282H33.4108L37.8418 5.87895H40.1145L44.5701 17.6282H41.9622L41.1365 15.2074ZM37.4984 13.2465H40.4743L38.9782 8.84855L37.4984 13.2465Z" fill="#83898F"/>
<path d="M56.1397 14.7151L58.8376 5.87895H61.5681L57.4233 17.6282H54.8644L50.7359 5.87895H53.4582L56.1397 14.7151Z" fill="#83898F"/>
<path d="M76.5551 12.5363H71.8461V15.6835H77.3726V17.6282H69.3935V5.87895H77.3563V7.83985H71.8461V10.64H76.5551V12.5363Z" fill="#83898F"/>
<path d="M95.1882 17.6282H92.7356L87.9612 9.89759V17.6282H85.5087V5.87895H87.9612L92.7438 13.6257V5.87895H95.1882V17.6282Z" fill="#83898F"/>
<path d="M104.027 17.6282V5.87895H107.69C108.736 5.87895 109.671 6.11296 110.494 6.581C111.322 7.04365 111.968 7.70536 112.432 8.56611C112.895 9.42149 113.126 10.3952 113.126 11.4873V12.028C113.126 13.12 112.898 14.0911 112.44 14.9411C111.987 15.7911 111.347 16.4501 110.519 16.9181C109.69 17.3861 108.755 17.6229 107.714 17.6282H104.027ZM106.48 7.83985V15.6835H107.665C108.625 15.6835 109.358 15.3741 109.864 14.7555C110.371 14.1368 110.63 13.2518 110.641 12.1006V11.4792C110.641 10.2849 110.39 9.38114 109.889 8.76785C109.388 8.14918 108.655 7.83985 107.69 7.83985H106.48Z" fill="#83898F"/>
<path d="M128.776 12.5363H124.067V15.6835H129.593V17.6282H121.614V5.87895H129.577V7.83985H124.067V10.64H128.776V12.5363Z" fill="#83898F"/>
<path d="M142.136 13.3272H140.182V17.6282H137.729V5.87895H142.152C143.558 5.87895 144.643 6.18828 145.406 6.80695C146.169 7.42561 146.55 8.29982 146.55 9.42955C146.55 10.2311 146.373 10.9009 146.019 11.4389C145.67 11.9715 145.139 12.3965 144.425 12.7139L147 17.5153V17.6282H144.367L142.136 13.3272ZM140.182 11.3663H142.16C142.776 11.3663 143.253 11.2129 143.591 10.9063C143.929 10.5943 144.098 10.1666 144.098 9.62322C144.098 9.06911 143.937 8.63336 143.615 8.31596C143.299 7.99855 142.811 7.83985 142.152 7.83985H140.182V11.3663Z" fill="#83898F"/>
<path d="M25.2012 36.1409H20.901L20.0834 38.5618H17.4755L21.9065 26.8125H24.1793L28.6348 38.5618H26.0269L25.2012 36.1409ZM21.5632 34.18H24.539L23.0429 29.7821L21.5632 34.18Z" fill="#83898F"/>
<path d="M45.6819 37.077C45.2404 37.5988 44.6164 38.005 43.8098 38.2955C43.0031 38.5806 42.1093 38.7231 41.1283 38.7231C40.0982 38.7231 39.1935 38.5026 38.4141 38.0614C37.6402 37.6149 37.0406 36.9694 36.6155 36.1247C36.1958 35.2801 35.9806 34.2876 35.9697 33.1471V32.3482C35.9697 31.1754 36.1686 30.1613 36.5665 29.306C36.9698 28.4452 37.5475 27.7889 38.2996 27.337C39.0572 26.8797 39.9429 26.6511 40.9566 26.6511C42.3682 26.6511 43.4719 26.9846 44.2676 27.6517C45.0633 28.3134 45.5348 29.2791 45.6819 30.5487H43.2947C43.1857 29.8762 42.9432 29.384 42.5671 29.0719C42.1965 28.7599 41.6842 28.6039 41.0302 28.6039C40.1963 28.6039 39.5613 28.9132 39.1253 29.5319C38.6893 30.1506 38.4686 31.0705 38.4631 32.2917V33.0422C38.4631 34.2741 38.7002 35.2048 39.1744 35.8342C39.6485 36.4637 40.3434 36.7784 41.2591 36.7784C42.1802 36.7784 42.8369 36.5847 43.2293 36.1974V34.1719H40.9975V32.3885H45.6819V37.077Z" fill="#83898F"/>
<path d="M61.5354 33.4699H56.8265V36.617H62.353V38.5618H54.3739V26.8125H62.3366V28.7734H56.8265V31.5735H61.5354V33.4699Z" fill="#83898F"/>
<path d="M80.1686 38.5618H77.716L72.9416 30.8311V38.5618H70.489V26.8125H72.9416L77.7241 34.5593V26.8125H80.1686V38.5618Z" fill="#83898F"/>
<path d="M98.352 34.648C98.2594 35.9122 97.7852 36.9075 96.9295 37.6338C96.0793 38.36 94.9566 38.7231 93.5613 38.7231C92.0353 38.7231 90.8335 38.2175 89.956 37.2061C89.084 36.1893 88.648 34.796 88.648 33.026V32.3078C88.648 31.1781 88.8496 30.1829 89.2529 29.3221C89.6563 28.4614 90.2312 27.8023 90.9779 27.3451C91.7301 26.8824 92.6021 26.6511 93.594 26.6511C94.9675 26.6511 96.0739 27.0142 96.9132 27.7405C97.7525 28.4667 98.2376 29.4862 98.3684 30.7988H95.9158C95.8558 30.0403 95.6406 29.4916 95.27 29.1526C94.9048 28.8083 94.3461 28.6362 93.594 28.6362C92.7765 28.6362 92.1633 28.9267 91.7546 29.5077C91.3513 30.0833 91.1442 30.9791 91.1333 32.1949V33.0825C91.1333 34.3521 91.3267 35.2801 91.7137 35.8665C92.1061 36.4529 92.722 36.7461 93.5613 36.7461C94.3189 36.7461 94.883 36.5766 95.2536 36.2377C95.6297 35.8934 95.845 35.3635 95.8995 34.648H98.352Z" fill="#83898F"/>
<path d="M110.764 32.1061L113.241 26.8125H115.922L112.015 34.301V38.5618H109.521V34.301L105.613 26.8125H108.303L110.764 32.1061Z" fill="#83898F"/>
</svg>
