<svg width="136" height="32" viewBox="0 0 136 32" fill="none" xmlns="http://www.w3.org/2000/svg">
<path d="M23.8221 1.13756H18.4044L11.8712 17.8746L5.33808 1.13756H0L11.8712 31.5242L23.8221 1.13756Z" fill="#83898F"/>
<path d="M35.8533 1.13756H30.8339V31.5242H35.8533V1.13756Z" fill="#83898F"/>
<path d="M53.8591 23.7244C59.9142 23.7244 64.9336 18.687 64.9336 12.431C64.9336 6.25615 59.9939 1.13756 53.8591 1.13756C47.7243 1.13756 42.7846 6.25615 42.7846 12.431C42.7846 18.687 47.804 23.7244 53.8591 23.7244ZM53.8591 6.17491C57.285 6.17491 59.9939 8.93732 59.9939 12.431C59.9939 15.9246 57.285 18.687 53.8591 18.687C50.4332 18.687 47.7243 15.9246 47.7243 12.431C47.7243 8.93732 50.4332 6.17491 53.8591 6.17491Z" fill="#83898F"/>
<path d="M63.5784 26.4865H43.8993V31.5239H63.5784V26.4865Z" fill="#83898F"/>
<path d="M87.8787 26.4868H76.8838V1.13756H71.9441V31.5242H87.8787V26.4868Z" fill="#83898F"/>
<path d="M115.126 26.4868H100.227V18.8495H112.576V13.8122H100.227V6.25615H115.126V1.13756H95.2076V31.5242H115.126V26.4868Z" fill="#83898F"/>
<path d="M126.121 31.5242H131.06V6.25615H136V1.13756H121.101V6.25615H126.121V31.5242Z" fill="#83898F"/>
<path d="M53.8588 25.0243C60.631 25.0243 66.1284 19.4182 66.1284 12.5121C66.1284 5.60609 60.631 0 53.8588 0C47.0866 0 41.5892 5.60609 41.5892 12.5121C41.5096 19.4182 47.0866 25.0243 53.8588 25.0243ZM53.8588 0.649983C60.3123 0.649983 65.491 5.93108 65.491 12.5121C65.491 19.0119 60.3123 24.3743 53.8588 24.3743C47.4053 24.3743 42.2266 19.0932 42.2266 12.5121C42.2266 5.93108 47.4053 0.649983 53.8588 0.649983Z" fill="#83898F"/>
</svg>
