<svg width="181" height="48" viewBox="0 0 181 48" fill="none" xmlns="http://www.w3.org/2000/svg">
<path d="M22.6575 27.0602C22.4855 29.4387 21.6049 31.3111 20.0159 32.6774C18.437 34.0438 16.3521 34.727 13.7611 34.727C10.9272 34.727 8.69547 33.7756 7.06598 31.8728C5.4466 29.9599 4.63691 27.3386 4.63691 24.0087V22.6575C4.63691 20.5321 5.01139 18.6597 5.76035 17.0403C6.50932 15.4209 7.57709 14.1811 8.96368 13.3208C10.3604 12.4504 11.9798 12.0152 13.8218 12.0152C16.3723 12.0152 18.4269 12.6984 19.9856 14.0647C21.5442 15.4311 22.445 17.349 22.6879 19.8186H18.1334C18.0221 18.3915 17.6223 17.3591 16.9341 16.7215C16.2559 16.0738 15.2185 15.7499 13.8218 15.7499C12.3036 15.7499 11.165 16.2964 10.4059 17.3895C9.65698 18.4725 9.27238 20.1576 9.25214 22.445V24.115C9.25214 26.5036 9.61143 28.2495 10.33 29.3526C11.0588 30.4559 12.2024 31.0075 13.7611 31.0075C15.1679 31.0075 16.2155 30.6886 16.9037 30.051C17.602 29.4033 18.0018 28.4063 18.103 27.0602H22.6575Z" fill="#83898F"/>
<path d="M45.1659 24.8437H36.4212V30.7645H46.684V34.4233H31.8667V12.3188H46.6537V16.008H36.4212V21.276H45.1659V24.8437Z" fill="#83898F"/>
<path d="M68.0537 29.8688H60.0682L58.55 34.4233H53.7071L61.9355 12.3188H66.156L74.43 34.4233H69.5871L68.0537 29.8688ZM61.2979 26.1797H66.824L64.0458 17.9057L61.2979 26.1797Z" fill="#83898F"/>
<path d="M97.5304 16.008H90.7594V34.4233H86.2049V16.008H79.525V12.3188H97.5304V16.008Z" fill="#83898F"/>
<path d="M124.35 34.4233H119.796V24.95H110.915V34.4233H106.36V12.3188H110.915V21.276H119.796V12.3188H124.35V34.4233Z" fill="#83898F"/>
<path d="M147.861 24.8437H139.116V30.7645H149.379V34.4233H134.562V12.3188H149.348V16.008H139.116V21.276H147.861V24.8437Z" fill="#83898F"/>
<path d="M169.731 28.6239C169.731 27.7636 169.428 27.1058 168.82 26.6503C168.213 26.1847 167.12 25.6989 165.541 25.1929C163.962 24.6767 162.712 24.1706 161.791 23.6747C159.281 22.3185 158.026 20.4916 158.026 18.1941C158.026 16.9998 158.36 15.9371 159.028 15.006C159.706 14.0647 160.673 13.3309 161.928 12.8046C163.193 12.2783 164.61 12.0152 166.179 12.0152C167.758 12.0152 169.165 12.3036 170.399 12.8806C171.634 13.4473 172.591 14.252 173.269 15.2944C173.957 16.3369 174.301 17.5211 174.301 18.8469H169.747C169.747 17.8348 169.428 17.0504 168.79 16.4938C168.152 15.927 167.257 15.6436 166.103 15.6436C164.99 15.6436 164.124 15.8815 163.507 16.3572C162.889 16.8227 162.581 17.4401 162.581 18.2093C162.581 18.9279 162.94 19.5301 163.659 20.0159C164.387 20.5017 165.455 20.9572 166.862 21.3823C169.453 22.1616 171.341 23.1282 172.525 24.282C173.709 25.4358 174.301 26.873 174.301 28.5936C174.301 30.5065 173.577 32.0094 172.13 33.1025C170.683 34.1855 168.734 34.727 166.285 34.727C164.585 34.727 163.036 34.4183 161.64 33.8009C160.243 33.1734 159.175 32.3181 158.436 31.2352C157.707 30.1522 157.343 28.8972 157.343 27.4701H161.913C161.913 29.9093 163.37 31.1289 166.285 31.1289C167.368 31.1289 168.213 30.9113 168.82 30.4761C169.428 30.0308 169.731 29.4134 169.731 28.6239Z" fill="#83898F"/>
<path d="M0 0H181V2.22086H0V0Z" fill="#83898F"/>
<path d="M0 45.5276H181V47.7485H0V45.5276Z" fill="#83898F"/>
</svg>
