<svg width="166" height="77" viewBox="0 0 166 77" fill="none" xmlns="http://www.w3.org/2000/svg">
<path d="M16.3618 15.5604C7.34104 15.5604 0 23.179 0 32.5409C0 41.9028 7.34104 49.5215 16.3618 49.5215C25.3826 49.5215 32.7236 41.9028 32.7236 32.5409C32.7236 23.179 25.3826 15.5604 16.3618 15.5604ZM25.2582 40.2887C24.7605 40.7407 24.1384 41.1926 23.5162 41.58C22.8941 42.032 22.1476 42.3548 21.401 42.7422C20.6545 43.065 19.7835 43.3232 18.9125 43.5169C18.0416 43.7106 17.1084 43.8398 16.113 43.8398C14.6821 43.8398 13.3756 43.6461 12.318 43.3233C11.2604 43.0004 10.3894 42.5485 9.7051 41.9028C9.02076 41.3217 8.52307 40.6115 8.21201 39.7722C7.90095 38.9329 7.71432 38.0935 7.71432 37.1251C7.71432 35.7692 8.02538 34.6716 8.58529 33.7677C9.1452 32.8638 9.95396 32.089 10.8871 31.4434C10.3894 30.9268 10.0162 30.2812 9.7051 29.5064C9.39404 28.7962 9.20741 28.0214 9.20741 27.1175C9.20741 26.2136 9.39404 25.3097 9.7051 24.5349C10.0162 23.7601 10.5139 23.0499 11.0738 22.4688C11.6959 21.8877 12.3802 21.4358 13.189 21.113C13.9977 20.7902 14.8687 20.661 15.8019 20.661C16.8595 20.661 17.7927 20.8547 18.6015 21.1775C19.4724 21.5004 20.1568 21.9523 20.7789 22.5334C21.401 23.1145 21.8365 23.8247 22.1476 24.5995C22.4586 25.3742 22.6453 26.2782 22.6453 27.2466C22.6453 28.3442 22.3342 29.3127 21.7743 30.1521C21.2144 30.9914 20.53 31.7016 19.7213 32.3472L22.583 34.8653C22.8319 34.607 23.0808 34.3488 23.3296 34.0259C23.5785 33.7677 23.8895 33.3803 24.2628 32.8637L28.4932 36.6085C28.0577 37.2542 27.56 37.8998 27.0001 38.4809C26.4402 39.1911 25.8803 39.7722 25.2582 40.2887ZM23.6407 37.2542C23.2674 37.6416 22.8319 37.9644 22.4586 38.2872C21.7121 38.8037 20.7789 39.3202 19.7213 39.7722C18.6637 40.2241 17.4194 40.4178 15.9885 40.4178C15.4908 40.4178 14.9931 40.3533 14.4332 40.2242C13.9355 40.095 13.4378 39.9013 13.0024 39.6431C12.5669 39.3848 12.1936 38.9974 11.9447 38.5455C11.6337 38.0935 11.5093 37.5124 11.5093 36.8668C11.5093 35.8983 11.7581 35.1881 12.318 34.607C12.8157 34.0259 13.5623 33.5094 14.5577 32.9929L15.4909 32.4764L20.4678 36.7376L21.09 36.2857L16.2374 32.089C17.4194 31.4434 18.3526 30.7331 19.0369 29.9583C19.7213 29.1836 20.0946 28.2797 20.0946 27.1821C20.0946 26.601 19.9701 26.0845 19.7835 25.6325C19.5346 25.1806 19.2858 24.7286 18.8503 24.4058C18.477 24.0829 18.0415 23.8247 17.4816 23.631C16.9839 23.4373 16.424 23.3727 15.8019 23.3727C15.3042 23.3727 14.8065 23.4373 14.3088 23.631C13.8111 23.8247 13.3756 24.0829 13.0024 24.4058C12.6291 24.7286 12.318 25.1806 12.0692 25.6325C11.8203 26.0845 11.7581 26.6656 11.7581 27.2466C11.7581 28.086 11.9448 28.7962 12.3802 29.3773C12.8157 30.0229 13.3756 30.604 14.1222 31.2496L14.9309 31.9599L14.1844 32.3472C13.7489 32.6055 13.2512 32.8638 12.8779 33.122C12.4424 33.4448 12.1314 33.7677 11.8203 34.0905C11.5093 34.4779 11.2604 34.8653 11.136 35.3172C10.9494 35.7692 10.8871 36.2857 10.8871 36.8022C10.8871 37.5124 11.0116 38.1581 11.3226 38.7392C11.6337 39.3203 12.007 39.7076 12.5047 40.095C13.0023 40.4178 13.5623 40.7407 14.1844 40.8698C14.8065 41.0635 15.4909 41.1281 16.1752 41.1281C17.6061 41.1281 18.9125 40.8698 20.0946 40.4178C21.2144 39.9659 22.2098 39.3848 23.0185 38.8037C23.9517 38.0935 24.7605 37.3187 25.507 36.4148L24.8849 35.9629C24.3872 36.4794 24.0139 36.8668 23.6407 37.2542ZM14.5577 30.7331C13.6867 30.0229 13.189 29.3773 12.8779 28.8608C12.6291 28.3442 12.5047 27.8277 12.5047 27.3112C12.5047 26.4073 12.8157 25.6325 13.3756 25.0514C13.9978 24.4703 14.7443 24.1475 15.6775 24.1475C16.113 24.1475 16.5485 24.2121 16.9217 24.3412C17.3572 24.4704 17.6683 24.664 18.0416 24.9223C18.3526 25.1805 18.6015 25.5034 18.7881 25.8908C18.9747 26.2781 19.0992 26.7301 19.0992 27.2466C19.0992 28.2797 18.7881 29.119 18.166 29.7646C17.5438 30.4103 16.6729 30.9914 15.4909 31.637L14.5577 30.7331ZM16.7351 28.086C16.9217 27.8277 17.0462 27.5049 17.0462 27.1175C17.0462 26.2782 16.6729 25.8908 15.8641 25.8908C15.4909 25.8908 15.242 26.0199 14.9931 26.2136C14.7443 26.4718 14.6821 26.7301 14.6821 27.1175C14.6821 27.4403 14.7443 27.6986 14.8687 28.0214C14.9932 28.2796 15.3042 28.6025 15.6775 28.9899C16.1752 28.667 16.4862 28.3442 16.7351 28.086ZM14.2466 36.7376C14.2466 37.2542 14.4332 37.6416 14.8687 37.8998C15.242 38.1581 15.7397 38.2872 16.2374 38.2872C16.5485 38.2872 16.8595 38.2872 17.2328 38.2227C17.5438 38.1581 17.8549 38.0935 18.166 37.9644L15.1176 35.2527C14.4955 35.64 14.2466 36.1566 14.2466 36.7376Z" fill="#83898F"/>
<path d="M17.0459 0H15.6772V17.1097H17.0459V0Z" fill="#83898F"/>
<path d="M17.0459 46.1643H15.6772V65.1463H17.0459V46.1643Z" fill="#83898F"/>
<path d="M58.168 44.3297C55.7373 44.3297 53.5381 43.7973 51.5704 42.7324C49.6259 41.6444 48.098 40.1629 46.9869 38.2878C45.8757 36.3895 45.3201 34.2598 45.3201 31.8986C45.3201 29.5373 45.8757 27.4192 46.9869 25.5441C48.098 23.6458 49.6375 22.1643 51.6052 21.0994C53.5728 20.0114 55.772 19.4674 58.2027 19.4674C60.1009 19.4674 61.8371 19.7915 63.4113 20.4397C64.9854 21.0647 66.3281 22.0022 67.4393 23.2523L65.1822 25.4399C63.3534 23.5185 61.0732 22.5578 58.3416 22.5578C56.536 22.5578 54.9039 22.9629 53.4455 23.7732C51.9871 24.5834 50.8412 25.7061 50.0079 27.1414C49.1976 28.5535 48.7925 30.1392 48.7925 31.8986C48.7925 33.6579 49.1976 35.2552 50.0079 36.6905C50.8412 38.1026 51.9871 39.2137 53.4455 40.024C54.9039 40.8342 56.536 41.2393 58.3416 41.2393C61.0501 41.2393 63.3303 40.267 65.1822 38.3225L67.4393 40.5101C66.3281 41.7602 64.9739 42.7093 63.3766 43.3575C61.8024 44.0056 60.0662 44.3297 58.168 44.3297Z" fill="#83898F"/>
<path d="M74.0596 28.7387C74.6383 27.6738 75.4949 26.8636 76.6292 26.308C77.7635 25.7524 79.1409 25.4746 80.7613 25.4746V28.704C80.5761 28.6808 80.3215 28.6692 79.9974 28.6692C78.1917 28.6692 76.7681 29.2132 75.7263 30.3013C74.7078 31.3661 74.1985 32.894 74.1985 34.8848V44.0519H70.865V25.6483H74.0596V28.7387Z" fill="#83898F"/>
<path d="M100.291 34.9543C100.291 35.2089 100.268 35.5446 100.222 35.9613H85.2906C85.499 37.5817 86.205 38.8896 87.4088 39.8851C88.6357 40.8573 90.152 41.3435 91.9576 41.3435C94.1568 41.3435 95.9277 40.6027 97.2704 39.1211L99.1107 41.274C98.2774 42.2463 97.2356 42.9871 95.9856 43.4964C94.7587 44.0056 93.3813 44.2603 91.8534 44.2603C89.9089 44.2603 88.1843 43.8667 86.6796 43.0797C85.1749 42.2694 84.0058 41.1467 83.1725 39.7114C82.3622 38.2762 81.9571 36.6557 81.9571 34.8501C81.9571 33.0676 82.3507 31.4587 83.1377 30.0235C83.948 28.5882 85.0475 27.477 86.4365 26.69C87.8486 25.8797 89.4343 25.4746 91.1937 25.4746C92.953 25.4746 94.5156 25.8797 95.8814 26.69C97.2704 27.477 98.3468 28.5882 99.1107 30.0235C99.8978 31.4587 100.291 33.1023 100.291 34.9543ZM91.1937 28.2873C89.5964 28.2873 88.2537 28.7734 87.1657 29.7457C86.1008 30.7179 85.4758 31.9912 85.2906 33.5653H97.0967C96.9116 32.0143 96.2749 30.7527 95.1869 29.7804C94.1221 28.785 92.791 28.2873 91.1937 28.2873Z" fill="#83898F"/>
<path d="M110.072 25.4746C112.618 25.4746 114.563 26.0997 115.905 27.3497C117.271 28.5998 117.954 30.4633 117.954 32.9403V44.0519H114.794V41.6213C114.238 42.4778 113.44 43.1375 112.398 43.6005C111.379 44.0404 110.164 44.2603 108.752 44.2603C106.692 44.2603 105.037 43.7626 103.787 42.7671C102.56 41.7717 101.946 40.4638 101.946 38.8433C101.946 37.2229 102.536 35.9265 103.717 34.9543C104.898 33.9588 106.773 33.4611 109.342 33.4611H114.62V32.8014C114.62 31.3661 114.204 30.2665 113.37 29.5026C112.537 28.7387 111.31 28.3567 109.69 28.3567C108.602 28.3567 107.537 28.5419 106.495 28.9123C105.453 29.2595 104.574 29.7341 103.856 30.336L102.467 27.8359C103.416 27.0719 104.55 26.4932 105.87 26.0997C107.189 25.683 108.59 25.4746 110.072 25.4746ZM109.308 41.6907C110.581 41.6907 111.68 41.4129 112.606 40.8573C113.532 40.2786 114.204 39.4684 114.62 38.4267V35.8571H109.481C106.657 35.8571 105.245 36.8062 105.245 38.7045C105.245 39.6304 105.604 40.3596 106.321 40.8921C107.039 41.4245 108.034 41.6907 109.308 41.6907Z" fill="#83898F"/>
<path d="M133.429 42.9755C132.943 43.3922 132.341 43.7163 131.623 43.9478C130.906 44.1561 130.165 44.2603 129.401 44.2603C127.549 44.2603 126.114 43.7626 125.095 42.7671C124.077 41.7717 123.567 40.348 123.567 38.4961V28.3914H120.442V25.6483H123.567V21.6203H126.901V25.6483H132.179V28.3914H126.901V38.3572C126.901 39.3526 127.144 40.1166 127.63 40.649C128.139 41.1814 128.857 41.4476 129.783 41.4476C130.801 41.4476 131.669 41.1583 132.387 40.5795L133.429 42.9755Z" fill="#83898F"/>
<path d="M152.44 34.9543C152.44 35.2089 152.416 35.5446 152.37 35.9613H137.439C137.647 37.5817 138.353 38.8896 139.557 39.8851C140.784 40.8573 142.3 41.3435 144.106 41.3435C146.305 41.3435 148.076 40.6027 149.419 39.1211L151.259 41.274C150.426 42.2463 149.384 42.9871 148.134 43.4964C146.907 44.0056 145.53 44.2603 144.002 44.2603C142.057 44.2603 140.333 43.8667 138.828 43.0797C137.323 42.2694 136.154 41.1467 135.321 39.7114C134.51 38.2762 134.105 36.6557 134.105 34.8501C134.105 33.0676 134.499 31.4587 135.286 30.0235C136.096 28.5882 137.196 27.477 138.585 26.69C139.997 25.8797 141.583 25.4746 143.342 25.4746C145.101 25.4746 146.664 25.8797 148.03 26.69C149.419 27.477 150.495 28.5882 151.259 30.0235C152.046 31.4587 152.44 33.1023 152.44 34.9543ZM143.342 28.2873C141.745 28.2873 140.402 28.7734 139.314 29.7457C138.249 30.7179 137.624 31.9912 137.439 33.5653H149.245C149.06 32.0143 148.423 30.7527 147.335 29.7804C146.27 28.785 144.939 28.2873 143.342 28.2873Z" fill="#83898F"/>
<path d="M159.221 28.7387C159.8 27.6738 160.657 26.8636 161.791 26.308C162.925 25.7524 164.303 25.4746 165.923 25.4746V28.704C165.738 28.6808 165.483 28.6692 165.159 28.6692C163.354 28.6692 161.93 29.2132 160.888 30.3013C159.87 31.3661 159.36 32.894 159.36 34.8848V44.0519H156.027V25.6483H159.221V28.7387Z" fill="#83898F"/>
<path d="M50.7718 55.5059V63.9785H62.9599V66.9648H50.7718V76.7916H47.2994V52.4849H64.453V55.5059H50.7718Z" fill="#83898F"/>
<path d="M73.8705 58.2143C76.4169 58.2143 78.3615 58.8394 79.7041 60.0894C81.0699 61.3395 81.7528 63.203 81.7528 65.68V76.7916H78.593V74.361C78.0374 75.2175 77.2387 75.8772 76.197 76.3402C75.1784 76.7801 73.9631 77 72.551 77C70.4907 77 68.8355 76.5023 67.5855 75.5068C66.3586 74.5114 65.7451 73.2035 65.7451 71.583C65.7451 69.9626 66.3354 68.6662 67.516 67.694C68.6966 66.6985 70.5717 66.2008 73.1413 66.2008H78.4193V65.5411C78.4193 64.1058 78.0027 63.0062 77.1693 62.2423C76.3359 61.4784 75.109 61.0964 73.4885 61.0964C72.4005 61.0964 71.3357 61.2816 70.294 61.652C69.2522 61.9992 68.3726 62.4738 67.6549 63.0757L66.266 60.5756C67.2151 59.8116 68.3494 59.2329 69.6689 58.8394C70.9884 58.4227 72.389 58.2143 73.8705 58.2143ZM73.1066 74.4304C74.3798 74.4304 75.4794 74.1526 76.4054 73.597C77.3313 73.0183 78.0027 72.2081 78.4193 71.1664V68.5968H73.2802C70.456 68.5968 69.0439 69.5459 69.0439 71.4441C69.0439 72.3701 69.4027 73.0993 70.1203 73.6318C70.838 74.1642 71.8334 74.4304 73.1066 74.4304Z" fill="#83898F"/>
<path d="M102.826 58.388L94.7705 76.7916H91.3676L83.3116 58.388H86.784L93.1038 73.1456L99.5624 58.388H102.826Z" fill="#83898F"/>
</svg>
